<?xml version="1.0" encoding="UTF-8"?>
<svg version="1.1" xmlns="http://www.w3.org/2000/svg" width="407" height="242">
<path d="M0 0 C1.51587111 -0.00346035 3.0317397 -0.00822745 4.54760307 -0.01418173 C8.69627065 -0.02666944 12.84473036 -0.02053157 16.99339855 -0.01122308 C21.47402195 -0.00442383 25.95461009 -0.01491812 30.43522644 -0.02316284 C39.20583085 -0.03649269 47.97635818 -0.03362586 56.74696559 -0.02492492 C63.87531236 -0.01814628 71.00363755 -0.01723244 78.13198662 -0.02049637 C79.147015 -0.02095607 80.16204338 -0.02141577 81.2078302 -0.0218894 C83.26990955 -0.02284858 85.3319889 -0.02382122 87.39406823 -0.02480717 C106.72331732 -0.03335876 126.0525237 -0.02353032 145.38176578 -0.00740607 C161.96465051 0.00599892 178.54747224 0.00366707 195.13035583 -0.01016235 C214.39259231 -0.02621874 233.65479138 -0.03253694 252.91703361 -0.02332556 C254.97116752 -0.02236992 257.02530143 -0.02142681 259.07943535 -0.02049637 C260.59540717 -0.01980213 260.59540717 -0.01980213 262.14200469 -0.01909386 C269.2617277 -0.01650431 276.38142698 -0.0208742 283.50114632 -0.02793503 C292.17770254 -0.03635078 300.85417734 -0.03406819 309.53072423 -0.0180928 C313.95703086 -0.01021143 318.38320176 -0.00711624 322.80950737 -0.01704025 C326.86270486 -0.02599029 330.91564101 -0.02104927 334.96881484 -0.0051076 C336.43368258 -0.00176113 337.89857247 -0.00345088 339.36342592 -0.01073496 C349.36292815 -0.05663757 357.80100849 0.30716976 365.37672472 7.51722819 C370.41891231 13.17113705 371.63128985 19.93593389 371.54673767 27.26792908 C371.55609761 28.53894003 371.55609761 28.53894003 371.56564665 29.83562797 C371.58148918 32.64993567 371.56900704 35.46336668 371.55638123 38.27767944 C371.56180619 40.30541485 371.56893095 42.33314632 371.57762146 44.36087036 C371.59581191 49.85046776 371.58880518 55.33976349 371.57610512 60.82936597 C371.56595671 66.58183414 371.57537578 72.334277 371.58164978 78.08674622 C371.58892022 87.74467594 371.57935364 97.40248317 371.56028748 107.06039429 C371.53851381 118.21847804 371.54557624 129.37626947 371.5675931 140.53434616 C371.58575687 150.12440761 371.5883008 159.71438117 371.57783842 169.30445427 C371.5716097 175.02789885 371.570751 180.7512061 371.58398438 186.4746418 C371.5955566 191.8551105 371.58749176 197.23520296 371.56440735 202.6156311 C371.5591279 204.58765476 371.56062092 206.55971019 371.56945801 208.53172112 C371.58042716 211.2285573 371.56663371 213.92419605 371.54673767 216.62095642 C371.560122 217.78493315 371.560122 217.78493315 371.57377672 218.97242457 C371.48245914 225.37578858 369.49597543 230.53348948 365.29270935 235.40438843 C358.17651362 241.09077116 351.74516237 242.50204871 342.64093304 242.51237869 C341.36658105 242.51621984 340.09222906 242.52006098 338.77926034 242.52401853 C337.37250366 242.52323838 335.96574704 242.52235961 334.55899048 242.52139282 C333.05879827 242.5239779 331.55860676 242.52699146 330.05841619 242.53039622 C325.93917147 242.53845242 321.8199442 242.54025502 317.70069253 242.54099369 C313.25681681 242.54284661 308.81295009 242.55039506 304.36907959 242.55712891 C294.65426563 242.5707021 284.9394558 242.57673513 275.22463393 242.58113956 C269.15833368 242.58390323 263.09203503 242.58814076 257.02573586 242.59264374 C240.22822641 242.60483418 223.43071823 242.61513452 206.63320446 242.61851883 C205.55846875 242.6187384 204.48373304 242.61895796 203.37642958 242.61918418 C202.29913624 242.61940246 201.22184291 242.61962074 200.11190432 242.61984563 C197.92892722 242.62028909 195.74595012 242.62073566 193.56297302 242.6211853 C192.48014305 242.62140673 191.39731307 242.62162816 190.28167007 242.6218563 C172.7314931 242.6258053 155.18135763 242.64326343 137.6311967 242.66654482 C119.61065388 242.69025723 101.59013189 242.7027206 83.56957322 242.70388675 C73.45245847 242.70480347 63.33539781 242.71055537 53.21829796 242.72870636 C44.60465618 242.74410571 35.99108523 242.74922871 27.37743231 242.74096826 C22.98341909 242.73706142 18.5895485 242.73799307 14.19555283 242.7520256 C10.17056804 242.7647621 6.14583312 242.76356928 2.12084869 242.75143489 C0.66730852 242.74947748 -0.78624934 242.75255839 -2.23976467 242.76127926 C-12.50700339 242.81896515 -21.66428936 242.4882549 -29.4702611 235.16410726 C-34.29838068 229.38968558 -35.55349812 222.80988021 -35.46913147 215.49397278 C-35.47537143 214.64663214 -35.48161139 213.79929151 -35.48804045 212.92627388 C-35.50388298 210.11196618 -35.49140084 207.29853517 -35.47877502 204.48422241 C-35.48419999 202.456487 -35.49132475 200.42875554 -35.50001526 198.40103149 C-35.5182057 192.91143409 -35.51119897 187.42213837 -35.49849892 181.93253589 C-35.48835051 176.18006772 -35.49776958 170.42762485 -35.50404358 164.67515564 C-35.51131402 155.01722592 -35.50174744 145.35941868 -35.48268127 135.70150757 C-35.46090761 124.54342382 -35.46797004 113.38563238 -35.4899869 102.22755569 C-35.50815067 92.63749424 -35.51069459 83.04752068 -35.50023222 73.45744759 C-35.4940035 67.73400301 -35.4931448 62.01069575 -35.50637817 56.28726006 C-35.5179504 50.90679136 -35.50988556 45.5266989 -35.48680115 40.14627075 C-35.4815217 38.1742471 -35.48301471 36.20219166 -35.49185181 34.23018074 C-35.50282096 31.53334456 -35.48902751 28.83770581 -35.46913147 26.14094543 C-35.4825158 24.9769687 -35.4825158 24.9769687 -35.49617052 23.78947729 C-35.40503941 17.39918913 -33.37469266 12.36992743 -29.35572815 7.39266968 C-20.49835639 -0.02127854 -11.16750591 -0.05562339 0 0 Z M-25.42945099 15.10238743 C-27.29588149 19.097313 -27.51886308 22.51632498 -27.46913147 26.83796692 C-27.47537143 27.67528274 -27.48161139 28.51259856 -27.48804045 29.37528759 C-27.50396162 32.17360664 -27.49136969 34.97105356 -27.47877502 37.76937866 C-27.48419657 39.77858996 -27.49131941 41.78779728 -27.50001526 43.79699707 C-27.51824872 49.24951639 -27.51118056 54.70173293 -27.49849892 60.15425754 C-27.48837005 65.86183407 -27.49776442 71.56938472 -27.50404358 77.27696228 C-27.51132088 86.86286064 -27.50173065 96.44863574 -27.48268127 106.03451538 C-27.46091865 117.11360002 -27.46795925 128.19239014 -27.4899869 139.27146763 C-27.50814586 148.78586993 -27.51069657 158.30018363 -27.50023222 167.81459767 C-27.49399926 173.49613684 -27.49315621 179.17753765 -27.50637817 184.85906792 C-27.51794296 190.20173915 -27.50989914 195.54403121 -27.48680115 200.88666153 C-27.48151719 202.84620217 -27.48302245 204.80577478 -27.49185181 206.76530266 C-27.5028034 209.44294797 -27.48904851 212.11938284 -27.46913147 214.79695129 C-27.4825158 215.95669398 -27.4825158 215.95669398 -27.49617052 217.13986582 C-27.42090552 222.36630572 -26.49150417 226.3939514 -22.9611969 230.38095093 C-16.56039492 235.85344001 -8.11821778 234.93884282 -0.18945312 234.88215637 C1.31801993 234.88605223 2.82548931 234.89169496 4.33295006 234.89892727 C8.46306689 234.91365895 12.59280157 234.90351444 16.72290599 234.88919055 C21.18171922 234.87807169 25.64047924 234.89002635 30.09928894 234.89903259 C38.82894649 234.91296048 47.55845932 234.90541236 56.28810997 234.89035701 C66.45435889 234.87349176 76.62057182 234.8767078 86.78683042 234.88045109 C104.92545667 234.88632877 123.0640135 234.8721613 141.20262146 234.84750366 C158.80355939 234.82357963 176.40440456 234.81650091 194.00535583 234.82699585 C213.17309092 234.83840455 232.34078312 234.84033598 251.50851768 234.82589775 C253.55225781 234.82437192 255.59599795 234.82285156 257.63973808 234.82133675 C258.64529344 234.82057893 259.65084881 234.81982112 260.68687554 234.81904034 C267.77349116 234.81429742 274.86008763 234.81614898 281.94670296 234.82040215 C290.58196218 234.82532822 299.2171337 234.81934694 307.85237283 234.79950785 C312.2582925 234.78963487 316.66407861 234.78453083 321.07000542 234.79240036 C325.10345931 234.79945724 329.1366437 234.79265245 333.17006206 234.77479673 C334.62888289 234.77075231 336.08772829 234.77175204 337.54653997 234.7783156 C348.98570281 235.05533958 348.98570281 235.05533958 358.7809906 229.84579468 C362.62389692 224.66449685 363.18869301 221.74585325 363.19270325 215.404953 C363.1970855 214.57105488 363.20146775 213.73715676 363.2059828 212.87798899 C363.21939906 210.06753203 363.22555602 207.25710643 363.23167419 204.44662476 C363.23957298 202.43800717 363.24784179 200.42939102 363.25645447 198.42077637 C363.2827021 191.80985881 363.29798562 185.19893483 363.3122406 178.58798218 C363.3175993 176.31413964 363.32297681 174.04029715 363.32837296 171.7664547 C363.35000639 162.30875224 363.36874352 152.85105152 363.37999535 143.39333057 C363.39623636 129.83003179 363.42941277 116.26701943 363.48639619 102.70382863 C363.52507738 93.17254753 363.54462594 83.64134308 363.54991591 74.10998553 C363.55357207 68.41489197 363.56562156 62.7201037 363.59801865 57.02509499 C363.62806666 51.66605984 363.63442258 46.30751523 363.62263489 40.94841385 C363.62241388 38.98240138 363.63074171 37.01636638 363.64828873 35.05043221 C363.67096243 32.36365315 363.66269412 29.67865545 363.64680481 26.99186707 C363.6606869 26.21597679 363.67456898 25.44008652 363.68887174 24.64068443 C363.61851235 19.80361542 362.53237211 16.81807374 359.69711554 12.90244216 C355.45373481 9.00916704 351.21622078 8.00585758 345.59128761 8.00063419 C343.6631593 7.98797428 343.6631593 7.98797428 341.6960789 7.97505862 C340.27684136 7.98085338 338.85760497 7.98693439 337.43836975 7.99327087 C335.9250872 7.98909716 334.41180779 7.98361944 332.89853418 7.97695106 C328.74309523 7.96248247 324.58785438 7.96674557 320.43240452 7.97411788 C315.94967849 7.97884378 311.46699567 7.96634478 306.98428345 7.95610046 C298.2032464 7.93889551 289.42228085 7.93807601 280.64123131 7.94331337 C273.50423059 7.94735331 266.36725102 7.9459136 259.23025131 7.94056511 C258.21481646 7.93981669 257.19938161 7.93906827 256.153176 7.93829716 C254.09037205 7.9367657 252.0275681 7.93522735 249.96476416 7.9336822 C230.61550162 7.9199509 211.26627949 7.92539916 191.91701786 7.93686741 C174.21418092 7.94679943 156.5114485 7.93386076 138.80862768 7.90993322 C120.63326876 7.88555199 102.45795854 7.87593201 84.28258359 7.88258594 C74.07774337 7.88608047 63.87298354 7.88383076 53.66815567 7.86633492 C44.98053106 7.85162512 36.29304344 7.85096145 27.60542156 7.86840583 C23.17301973 7.87692847 18.74086275 7.87903461 14.30847359 7.86375427 C10.24953954 7.84993466 6.19106072 7.85463498 2.1321532 7.87399351 C0.66517568 7.87776225 -0.80183806 7.87480634 -2.26878338 7.86438186 C-11.69820197 7.80214807 -18.85628308 7.85497349 -25.42945099 15.10238743 Z " fill="#FFFFFF" transform="translate(35.96119689941406,-0.380950927734375)"/>
<path d="M0 0 C9.50012859 6.53980339 14.79476278 13.83796957 16.91796875 25.3203125 C17.19173099 28.6895714 17.20184856 32.04155264 17.19262695 35.4206543 C17.19773788 36.39890167 17.20284882 37.37714905 17.20811462 38.38504028 C17.22193849 41.59660064 17.22106004 44.80794481 17.21875 48.01953125 C17.22263936 50.26056497 17.22697452 52.50159796 17.23173523 54.74263 C17.23918078 59.42878618 17.2389171 64.11486697 17.23364258 68.80102539 C17.22783374 74.80675575 17.24482127 80.81217913 17.26798725 86.8178587 C17.2827102 91.4409414 17.28359853 96.06394978 17.28047752 100.68705177 C17.28099092 102.90183943 17.28623202 105.11663122 17.29628944 107.3313961 C17.30861573 110.42385326 17.30188608 113.51570692 17.2902832 116.6081543 C17.29792694 117.52203415 17.30557068 118.435914 17.31344604 119.37748718 C17.27437093 124.08557585 17.21140042 127.63437712 13.91796875 131.3203125 C7.30951138 132.26437784 7.30951138 132.26437784 3.82191467 129.89828491 C0.91503006 125.9623179 1.37015996 122.28009116 1.41967773 117.50634766 C1.41415894 116.51078354 1.40864014 115.51521942 1.4029541 114.48948669 C1.39362953 112.32821246 1.39353267 110.16688328 1.40154839 108.00560379 C1.4141558 104.5840531 1.4029084 101.16331181 1.38551331 97.74179077 C1.35877657 91.71064513 1.35321886 85.67969704 1.35461426 79.64849854 C1.3568402 70.00174163 1.34273523 60.35522965 1.2990284 50.70856857 C1.28918674 47.33940541 1.29791025 43.97062624 1.307724 40.60147095 C1.30157907 38.53200021 1.2946671 36.46253156 1.28686523 34.39306641 C1.2945845 33.45779617 1.30230377 32.52252594 1.31025696 31.55891418 C1.2700713 26.39038539 0.81562297 22.78621213 -2.08203125 18.3203125 C-4.44299325 16.0313201 -4.44299325 16.0313201 -7.08203125 14.3203125 C-7.68015625 13.9078125 -8.27828125 13.4953125 -8.89453125 13.0703125 C-13.98324142 11.32561187 -18.51880506 11.79013659 -23.33203125 13.9453125 C-28.09186049 16.57303748 -30.37819506 20.20880394 -32.08203125 25.3203125 C-32.17550358 26.72000347 -32.21524422 28.1236737 -32.22006226 29.526474 C-32.22824226 30.8113546 -32.22824226 30.8113546 -32.23658752 32.12219238 C-32.23762985 33.05889771 -32.23867218 33.99560303 -32.23974609 34.96069336 C-32.24482681 35.94957047 -32.24990753 36.93844757 -32.25514221 37.95729065 C-32.26584929 40.10659332 -32.27446814 42.25590715 -32.28126144 44.40522575 C-32.29303722 47.80492384 -32.31248579 51.20449414 -32.3343811 54.60414124 C-32.39604874 64.27080045 -32.45009293 73.93744623 -32.48339844 83.60424805 C-32.50431186 89.51463901 -32.53958668 95.42479656 -32.58415604 101.3350544 C-32.59834094 103.58970968 -32.60704406 105.84440625 -32.61021042 108.09910393 C-32.61510423 111.2498312 -32.63822244 114.39993579 -32.66552734 117.55053711 C-32.66252121 118.4852182 -32.65951508 119.41989929 -32.65641785 120.38290405 C-32.73780591 126.68828062 -32.73780591 126.68828062 -34.48696899 129.8999176 C-37.00344058 132.14082286 -38.98456209 131.81218253 -42.2109375 131.65234375 C-44.08203125 131.3203125 -44.08203125 131.3203125 -46.01953125 129.9453125 C-47.80622441 127.21272296 -48.2093026 125.54477245 -48.22247314 122.31274414 C-48.22818329 121.47461685 -48.23389343 120.63648956 -48.23977661 119.77296448 C-48.24089447 118.85144089 -48.24201233 117.9299173 -48.24316406 116.98046875 C-48.24812897 116.011129 -48.25309387 115.04178925 -48.25820923 114.04307556 C-48.27286112 110.82298073 -48.27964001 107.60293525 -48.28515625 104.3828125 C-48.29090787 102.14518228 -48.2966656 99.90755207 -48.3024292 97.66992188 C-48.31294961 92.96891042 -48.31878459 88.26791611 -48.32226562 83.56689453 C-48.3277342 77.5592618 -48.35172283 71.55185758 -48.38023758 65.54429626 C-48.39892056 60.91672113 -48.40407271 56.28920023 -48.4056015 51.66159058 C-48.40861883 49.44813801 -48.4166161 47.23468619 -48.42978668 45.02127075 C-48.44695547 41.91244526 -48.44493978 38.80416694 -48.43847656 35.6953125 C-48.44769135 34.78998276 -48.45690613 33.88465302 -48.46640015 32.95188904 C-48.40011494 22.70782808 -45.57220346 13.24969849 -38.51953125 5.6328125 C-28.58854452 -3.56254558 -12.28637624 -6.79671877 0 0 Z " fill="#FFFFFF" transform="translate(256.08203125,56.6796875)"/>
<path d="M0 0 C1.87109375 0.33203125 1.87109375 0.33203125 3.80859375 1.70703125 C5.62134742 4.47947804 5.9979613 6.16830607 6.00912476 9.44917297 C6.01457809 10.31135437 6.02003143 11.17353577 6.02565002 12.06184387 C6.02669235 13.00992416 6.02773468 13.95800446 6.02880859 14.93481445 C6.03642967 16.43013199 6.03642967 16.43013199 6.04420471 17.95565796 C6.05492378 20.12571133 6.0635379 22.29577587 6.07032394 24.46584511 C6.08208789 27.89934237 6.10153443 31.33271242 6.1234436 34.76615906 C6.1851431 44.5301796 6.23911911 54.29418786 6.27246094 64.05834961 C6.29339006 70.02594554 6.32868108 75.993311 6.37321854 81.96077538 C6.38739462 84.23693315 6.39610459 86.51313172 6.39927292 88.78933144 C6.4041739 91.97348816 6.42731203 95.15703197 6.45458984 98.34106445 C6.45158371 99.28307205 6.44857758 100.22507965 6.44548035 101.19563293 C6.50860086 106.14969033 6.83677652 109.21366133 9.87109375 113.33203125 C9.87109375 113.99203125 9.87109375 114.65203125 9.87109375 115.33203125 C15.44076098 118.33108284 20.49716679 119.991403 26.87109375 119.33203125 C32.66751305 117.41801662 35.99635426 114.85153108 38.87109375 109.33203125 C39.73597699 106.51363342 39.99890901 103.98479894 40.00912476 101.0435791 C40.01457809 100.19403152 40.02003143 99.34448395 40.02565002 98.4691925 C40.02721352 97.08355354 40.02721352 97.08355354 40.02880859 95.66992188 C40.03388931 94.69065231 40.03897003 93.71138275 40.04420471 92.70243835 C40.05489995 90.5771626 40.06352344 88.45187565 40.07032394 86.32658386 C40.08211426 82.9646109 40.10156602 79.60276631 40.1234436 76.24084473 C40.18506666 66.68257904 40.2391687 57.12432768 40.27246094 47.56591797 C40.29337397 41.7192114 40.3286462 35.8727408 40.37321854 30.02616882 C40.38740121 27.79663362 40.39610606 25.5670567 40.39927292 23.33747864 C40.40416671 20.2227802 40.42728408 17.10871164 40.45458984 13.99414062 C40.45158371 13.07038132 40.44857758 12.14662201 40.44548035 11.19487 C40.5267152 4.97356372 40.5267152 4.97356372 42.25576782 1.75256348 C44.42941969 -0.15896563 45.70670681 -0.08329553 48.55859375 0.08203125 C49.36683594 0.118125 50.17507812 0.15421875 51.0078125 0.19140625 C51.93013672 0.26101562 51.93013672 0.26101562 52.87109375 0.33203125 C52.87109375 0.99203125 52.87109375 1.65203125 52.87109375 2.33203125 C53.53109375 2.33203125 54.19109375 2.33203125 54.87109375 2.33203125 C54.98819465 16.50143975 55.07587916 30.67077259 55.13015461 44.84056664 C55.15620881 51.4207377 55.19153175 58.00058287 55.24829102 64.58056641 C55.30275793 70.93482273 55.33254569 77.28876625 55.34547997 83.64323807 C55.35469336 86.06326849 55.37268498 88.48328248 55.39974403 90.90317917 C55.43622785 94.30219801 55.4410308 97.69993685 55.4387207 101.09912109 C55.45669708 102.09174957 55.47467346 103.08437805 55.49319458 104.10708618 C55.42925476 112.84506003 52.5059658 119.63040944 46.68359375 126.14453125 C39.19680252 132.83823019 32.67805265 134.77939124 22.74609375 134.89453125 C21.89893799 134.9092749 21.05178223 134.92401855 20.17895508 134.93920898 C12.79606247 134.81895705 7.91845902 132.3636081 1.87109375 128.33203125 C1.87109375 127.67203125 1.87109375 127.01203125 1.87109375 126.33203125 C1.26523438 126.08839844 0.659375 125.84476562 0.03515625 125.59375 C-2.56140387 124.07987108 -3.34869798 122.77816353 -4.75390625 120.14453125 C-5.36105469 119.04044922 -5.36105469 119.04044922 -5.98046875 117.9140625 C-8.9681194 111.19692958 -9.42269843 105.32183233 -9.40356445 98.05395508 C-9.40867538 97.04498672 -9.41378632 96.03601837 -9.41905212 94.99647522 C-9.4328992 91.67727655 -9.43199572 88.35828653 -9.4296875 85.0390625 C-9.43357566 82.72694319 -9.43791058 80.41482459 -9.44267273 78.10270691 C-9.45012335 73.26514363 -9.44985097 68.42765336 -9.44458008 63.59008789 C-9.4387715 57.38581652 -9.45575569 51.18184232 -9.47892475 44.97762012 C-9.49363774 40.20702869 -9.49453737 35.43650937 -9.49141502 30.66589928 C-9.49192895 28.37771705 -9.49718002 26.08953085 -9.50722694 23.80137062 C-9.51953351 20.60802304 -9.5128354 17.41526169 -9.5012207 14.22192383 C-9.50886444 13.27482544 -9.51650818 12.32772705 -9.52438354 11.35192871 C-9.47293063 4.96678024 -9.47293063 4.96678024 -7.72673035 1.74491882 C-5.2054363 -0.48455376 -3.22377206 -0.15970981 0 0 Z " fill="#FFFFFF" transform="translate(134.12890625,53.66796875)"/>
<path d="M0 0 C0 0.66 0 1.32 0 2 C1.32 2.66 2.64 3.32 4 4 C4 4.66 4 5.32 4 6 C4.66 6 5.32 6 6 6 C6.81436868 7.76997474 7.6264294 9.54101152 8.4375 11.3125 C8.88996094 12.29863281 9.34242188 13.28476563 9.80859375 14.30078125 C11.55286747 18.25256205 12.13438071 21.20168658 12.17700195 25.49023438 C12.19625481 27.17844299 12.19625481 27.17844299 12.21589661 28.90075684 C12.22328354 30.11944458 12.23067047 31.33813232 12.23828125 32.59375 C12.246353 33.85078735 12.25442474 35.10782471 12.26274109 36.4029541 C12.27658652 39.06945479 12.2875998 41.73583172 12.29516602 44.40234375 C12.30616576 47.79026632 12.34049086 51.17752028 12.38033772 54.56520844 C12.41306272 57.82465476 12.41730654 61.08416449 12.42578125 64.34375 C12.44328934 65.5462439 12.46079742 66.74873779 12.47883606 67.9876709 C12.4505849 79.09947101 9.99522211 87.93687465 2.2265625 96.0546875 C-6.44897084 103.634364 -15.69919951 104.9323447 -26.84228516 104.26513672 C-34.10185937 103.37309128 -40.09373941 99.36248493 -45 94.125 C-52.57817535 84.42123888 -53.15526269 75.47835116 -53.16796875 63.51171875 C-53.17129715 62.41334183 -53.17462555 61.3149649 -53.17805481 60.18330383 C-53.18310273 57.86610328 -53.1854638 55.5488955 -53.18530273 53.23168945 C-53.18748625 49.70967471 -53.20565691 46.18797493 -53.22460938 42.66601562 C-53.22754443 40.40625106 -53.22952848 38.14648502 -53.23046875 35.88671875 C-53.23765427 34.84472824 -53.24483978 33.80273773 -53.25224304 32.72917175 C-53.21601205 20.97995296 -51.51767929 12.24368973 -43.625 3.3125 C-29.93221436 -8.75019211 -15.73024945 -8.25838096 0 0 Z M-33.4375 13.875 C-37.20705104 17.80564297 -38.24458142 22.13301563 -38.32226562 27.47363281 C-38.34148071 28.54534729 -38.3606958 29.61706177 -38.38049316 30.72125244 C-38.38899292 31.87027039 -38.39749268 33.01928833 -38.40625 34.203125 C-38.41765015 35.39548767 -38.42905029 36.58785034 -38.4407959 37.81634521 C-38.45967156 40.33797673 -38.47275421 42.8596573 -38.48046875 45.38134766 C-38.49986149 49.22256406 -38.56191629 53.06163034 -38.625 56.90234375 C-38.63806328 59.35675817 -38.64856297 61.81118785 -38.65625 64.265625 C-38.6809436 65.40654602 -38.70563721 66.54746704 -38.7310791 67.72296143 C-38.68926468 75.27691836 -37.27249018 80.42088027 -32 86 C-27.23862 89.42981728 -22.92107826 90.84586832 -17 90 C-11.10970506 87.99143199 -7.55016746 85.05629911 -4 80 C-2.99288645 76.97865935 -2.85588759 74.89906689 -2.82299805 71.73754883 C-2.81016281 70.6624556 -2.79732758 69.58736237 -2.78410339 68.47969055 C-2.77671646 67.31721298 -2.76932953 66.15473541 -2.76171875 64.95703125 C-2.753647 63.75946701 -2.74557526 62.56190277 -2.73725891 61.32804871 C-2.72341821 58.79024707 -2.712696 56.25242681 -2.70483398 53.71459961 C-2.68764516 49.84517814 -2.64375968 45.97661629 -2.59960938 42.10742188 C-2.58948024 39.64063128 -2.58096483 37.17383342 -2.57421875 34.70703125 C-2.55671066 33.55467484 -2.53920258 32.40231842 -2.52116394 31.21504211 C-2.53964078 24.32559799 -3.30360566 19.86199788 -7 14 C-14.86097806 6.50501889 -25.52442456 6.38756676 -33.4375 13.875 Z " fill="#FFFFFF" transform="translate(355,84)"/>
<path d="M0 0 C1.08792847 -0.01268417 2.17585693 -0.02536835 3.29675293 -0.03843689 C5.05154968 -0.03403343 5.05154968 -0.03403343 6.84179688 -0.02954102 C8.04743286 -0.03478287 9.25306885 -0.04002472 10.49523926 -0.04542542 C13.0438561 -0.05184788 15.59250257 -0.05050576 18.14111328 -0.04199219 C22.04578254 -0.03347945 25.94899082 -0.06224804 29.85351562 -0.09399414 C32.3287756 -0.09560611 34.80403818 -0.09502871 37.27929688 -0.09204102 C38.44916138 -0.10327499 39.61902588 -0.11450897 40.82434082 -0.12608337 C41.91226929 -0.11670242 43.00019775 -0.10732147 44.12109375 -0.09765625 C45.07721558 -0.09749008 46.0333374 -0.09732391 47.01843262 -0.09715271 C50.30024001 0.54989127 51.47535224 1.84644623 53.56054688 4.40405273 C55.02830906 7.88770406 54.54375966 9.45763618 53.40039062 13.10717773 C52.78015315 14.62853434 52.14464939 16.14371316 51.49804688 17.65405273 C51.14299072 18.51192383 50.78793457 19.36979492 50.42211914 20.25366211 C49.15044937 23.31053516 47.85665904 26.35746506 46.56054688 29.40405273 C45.79056949 31.22481112 45.02060131 33.04557341 44.25091553 34.86645508 C42.24006763 39.62180404 40.22434917 44.37505465 38.20019531 49.12475586 C33.66103249 59.77852872 29.19066095 70.4596942 24.74804688 81.15405273 C19.43516535 93.94041251 14.05393729 106.69399788 8.56054688 119.40405273 C10.39214355 119.37263184 10.39214355 119.37263184 12.26074219 119.34057617 C16.79301212 119.26815115 21.32523095 119.22224385 25.85791016 119.18432617 C27.81926069 119.16421641 29.78055131 119.13692455 31.74169922 119.10229492 C34.56167382 119.05374852 37.38085552 119.03107787 40.20117188 119.01342773 C41.51544159 118.98246002 41.51544159 118.98246002 42.85626221 118.9508667 C48.94594444 118.94862449 48.94594444 118.94862449 52.08691406 121.27612305 C53.83922638 123.80646668 54.48524216 125.31655945 54.56054688 128.40405273 C52.36651702 133.00106766 52.36651702 133.00106766 49.56054688 134.40405273 C47.78940357 134.5049881 46.0144822 134.54242571 44.24047852 134.54931641 C43.12915054 134.55569626 42.01782257 134.56207611 40.87281799 134.56864929 C39.06502113 134.57031853 39.06502113 134.57031853 37.22070312 134.57202148 C35.98766953 134.57534988 34.75463593 134.57867828 33.48423767 134.58210754 C30.87238947 134.58717801 28.26053476 134.58951583 25.64868164 134.58935547 C22.96664716 134.58927403 20.2847828 134.59623996 17.6027832 134.60986328 C13.74620299 134.62812518 9.88982217 134.63308939 6.03320312 134.63452148 C4.83002945 134.641707 3.62685577 134.64889252 2.38722229 134.65629578 C1.27274216 134.65321915 0.15826202 134.65014252 -0.98999023 134.64697266 C-2.46319984 134.64911018 -2.46319984 134.64911018 -3.96617126 134.65129089 C-6.43945312 134.40405273 -6.43945312 134.40405273 -9.43945312 132.40405273 C-11.42702641 125.15187418 -9.28969936 120.27661687 -6.31445312 113.59155273 C-5.92257813 112.67051758 -5.53070313 111.74948242 -5.12695312 110.80053711 C-3.18263374 106.26061489 -1.1488967 101.76513101 0.91601562 97.27905273 C4.3874755 89.67409912 7.54851678 81.93863003 10.74804688 74.21655273 C11.41511301 72.61011812 12.08235104 71.00375487 12.74975586 69.39746094 C14.07444783 66.20887469 15.39831172 63.01994649 16.72167969 59.83081055 C18.32660458 55.96491945 19.93800015 52.10179439 21.55273438 48.23999023 C21.99335205 47.18577881 22.43396973 46.13156738 22.88793945 45.04541016 C23.67090945 43.17287527 24.45452242 41.30060901 25.23901367 39.42871094 C28.42992429 31.78718629 31.49819395 24.09775385 34.56054688 16.40405273 C33.37501221 16.39994385 32.18947754 16.39583496 30.96801758 16.39160156 C26.56002616 16.36979285 22.15292516 16.31548532 17.74536133 16.25146484 C15.83952381 16.22829997 13.93355855 16.21389266 12.02758789 16.20849609 C9.28385965 16.19919532 6.54213625 16.15818203 3.79882812 16.11108398 C2.94968338 16.11501663 2.10053864 16.11894928 1.22566223 16.1230011 C-3.11529232 16.0164741 -4.94149177 15.77955096 -8.51293945 13.08642578 C-10.43945312 10.40405273 -10.43945312 10.40405273 -10.50195312 6.77905273 C-8.71578436 1.1053402 -5.70415006 0.0322338 0 0 Z " fill="#FFFFFF" transform="translate(51.439453125,53.595947265625)"/>
<path d="M0 0 C0.97110718 -0.00945648 1.94221436 -0.01891296 2.94274902 -0.02865601 C4.51312927 -0.01954697 4.51312927 -0.01954697 6.11523438 -0.01025391 C7.72960388 -0.01455917 7.72960388 -0.01455917 9.37658691 -0.01895142 C11.65291876 -0.02099365 13.92926809 -0.0154527 16.20556641 -0.00292969 C19.69538511 0.01312105 23.18404557 -0.00277368 26.67382812 -0.02197266 C28.88346611 -0.01999025 31.09310336 -0.01614664 33.30273438 -0.01025391 C34.34965454 -0.0163266 35.39657471 -0.02239929 36.47521973 -0.02865601 C37.93188049 -0.01447128 37.93188049 -0.01447128 39.41796875 0 C40.27273804 0.00238678 41.12750732 0.00477356 42.00817871 0.00723267 C44.72081496 0.47677948 45.60816268 1.1720266 47.20898438 3.38818359 C47.86256992 9.48831533 47.86256992 9.48831533 45.97825623 12.08267212 C43.69374434 13.76836925 42.35034692 13.76828318 39.52563477 13.77636719 C38.10384666 13.79055191 38.10384666 13.79055191 36.65333557 13.80502319 C35.63142624 13.7989505 34.60951691 13.79287781 33.55664062 13.78662109 C31.9791227 13.79092636 31.9791227 13.79092636 30.36973572 13.7953186 C28.14467837 13.7973609 25.91960313 13.79181955 23.69458008 13.77929688 C20.28816531 13.76326211 16.88294 13.77913234 13.4765625 13.79833984 C11.31575259 13.79635713 9.15494342 13.79251287 6.99414062 13.78662109 C5.46431297 13.79573013 5.46431297 13.79573013 3.90357971 13.80502319 C2.95256882 13.79556671 2.00155792 13.78611023 1.02172852 13.77636719 C0.18694473 13.77398041 -0.64783905 13.77159363 -1.50791931 13.76913452 C-4.36031128 13.29319255 -5.73556364 12.40546972 -7.79101562 10.38818359 C-8.53728563 4.41802358 -8.53728563 4.41802358 -6.56311035 1.69369507 C-4.25113991 -0.00954568 -2.85769203 0.00797956 0 0 Z " fill="#FFFFFF" transform="translate(314.791015625,53.61181640625)"/>
</svg>
